<?xml version="1.0" standalone="no"?>
<!DOCTYPE svg PUBLIC "-//W3C//DTD SVG 20010904//EN"
 "http://www.w3.org/TR/2001/REC-SVG-20010904/DTD/svg10.dtd">
<svg version="1.0" xmlns="http://www.w3.org/2000/svg"
 width="350.000000pt" height="350.000000pt" viewBox="0 0 350.000000 350.000000"
 preserveAspectRatio="xMidYMid meet">
<metadata>
Created by potrace 1.11, written by Peter Selinger 2001-2013
</metadata>
<g transform="translate(0.000000,350.000000) scale(0.100000,-0.100000)"
fill="#000000" stroke="none">
<path d="M1167 3305 c-12 -11 -17 -12 -20 -2 -3 9 -8 9 -18 -2 -12 -12 -12
-13 1 -6 8 4 5 -2 -8 -14 -12 -12 -19 -27 -16 -33 5 -8 1 -9 -11 -4 -15 5 -16
4 -5 -9 10 -12 9 -15 -6 -15 -16 0 -16 -2 -4 -10 12 -7 10 -11 -10 -19 -14 -5
-18 -10 -10 -11 13 0 13 -1 0 -10 -8 -5 -15 -18 -15 -29 0 -10 -11 -28 -25
-40 -21 -18 -22 -20 -5 -15 16 5 14 1 -7 -18 -28 -25 -38 -46 -17 -32 8 4 8 0
0 -15 -7 -11 -14 -21 -17 -21 -3 0 -2 6 2 13 5 8 3 8 -9 -2 -15 -12 -15 -31
-1 -31 3 0 2 5 -2 12 -4 7 -3 8 5 4 14 -9 3 -29 -13 -23 -7 3 -13 -1 -13 -9 0
-7 4 -11 9 -8 4 3 5 -2 2 -11 -4 -9 -13 -14 -22 -10 -11 4 -12 2 -4 -7 7 -9 6
-16 -3 -25 -7 -6 -15 -10 -17 -7 -3 2 -5 -2 -5 -10 0 -8 7 -12 16 -10 9 3 6
-1 -6 -7 -13 -7 -23 -18 -23 -26 0 -7 -5 -13 -12 -13 -6 0 -8 -3 -5 -7 4 -3
-1 -15 -10 -26 -10 -11 -12 -17 -5 -13 6 4 12 2 12 -3 0 -6 -6 -11 -14 -11 -8
0 -18 -5 -22 -12 -4 -7 -3 -8 4 -4 7 4 12 3 12 -3 0 -5 -5 -11 -11 -13 -5 -2
-11 -10 -13 -18 -6 -31 -18 -50 -29 -43 -6 3 -7 1 -3 -5 3 -6 -2 -15 -11 -21
-12 -7 -13 -10 -4 -11 7 0 11 -6 7 -15 -3 -8 -2 -14 2 -14 18 3 32 -2 32 -12
0 -5 -4 -7 -10 -4 -6 3 -7 -1 -4 -9 3 -9 10 -13 15 -10 5 3 9 0 9 -6 0 -6 5
-8 12 -4 7 4 8 3 4 -5 -4 -6 -13 -8 -19 -4 -7 3 -4 -3 5 -14 10 -11 18 -27 18
-36 0 -9 5 -17 11 -17 5 0 7 5 3 12 -4 6 -3 8 4 5 5 -4 8 -17 4 -29 -3 -13 -1
-19 5 -15 11 7 38 -40 34 -60 -1 -7 3 -13 9 -13 6 0 8 -4 5 -10 -3 -5 -1 -10
5 -10 7 0 9 -7 6 -16 -3 -8 -2 -12 3 -9 5 3 12 1 16 -5 3 -5 1 -10 -5 -10 -6
0 -8 -5 -5 -10 4 -6 11 -8 16 -5 5 4 9 -3 9 -15 0 -12 4 -19 9 -16 5 4 7 -3 4
-14 -3 -12 0 -20 6 -20 7 0 10 -4 7 -9 -3 -5 2 -15 12 -22 15 -13 16 -12 4 3
-10 12 -10 18 -1 24 7 4 9 3 5 -4 -3 -6 -2 -13 4 -17 7 -4 7 -13 0 -26 -8 -14
-8 -19 0 -17 7 2 19 -8 28 -22 11 -16 12 -21 4 -16 -11 7 -12 4 -3 -13 7 -11
14 -21 17 -21 3 0 2 5 -2 12 -4 6 -3 8 4 4 6 -3 9 -16 7 -27 -2 -11 2 -22 11
-26 8 -3 13 -12 10 -20 -4 -9 -2 -11 6 -7 8 5 9 2 4 -11 -6 -16 -4 -16 10 -4
16 13 16 12 5 -10 -8 -15 -9 -21 -2 -17 6 4 11 0 11 -9 0 -10 5 -13 13 -9 7 5
7 1 -3 -12 -8 -10 -11 -16 -6 -12 11 9 29 -10 42 -47 6 -18 16 -29 25 -27 11
3 12 1 1 -10 -10 -10 -8 -16 10 -31 13 -10 17 -16 11 -12 -9 4 -11 1 -7 -9 3
-9 14 -16 23 -16 14 0 14 -2 1 -10 -12 -8 -12 -10 -1 -10 8 0 11 -3 7 -7 -3
-4 4 -13 16 -21 13 -7 16 -11 7 -9 -9 3 -16 -1 -16 -8 0 -8 7 -11 15 -7 9 3
13 1 9 -5 -4 -6 0 -14 9 -17 8 -3 13 -2 10 2 -6 11 25 9 43 -3 10 -5 12 -4 7
3 -10 16 7 15 23 0 10 -11 11 -9 5 6 -5 14 -4 17 5 11 8 -4 17 -2 22 6 6 10 9
11 9 2 0 -7 5 -13 11 -13 5 0 7 5 3 12 -5 8 -2 9 9 5 10 -4 17 -2 17 5 0 6 6
5 17 -3 11 -10 14 -10 9 -1 -4 7 -1 12 8 13 36 3 41 5 38 18 -1 7 2 10 8 6 6
-3 8 -11 5 -16 -4 -5 -2 -9 3 -9 6 0 12 6 15 14 4 9 14 12 28 9 17 -5 20 -3
14 8 -8 12 -6 12 8 0 15 -12 20 -11 35 2 12 11 22 13 28 7 6 -6 16 -3 27 10 9
11 12 20 6 20 -8 0 -7 6 2 18 7 9 10 14 6 11 -11 -9 -70 49 -62 61 4 6 1 9 -7
8 -7 -2 -12 5 -12 15 1 10 0 16 -3 13 -7 -7 -32 17 -26 27 2 4 -3 7 -11 7 -9
0 -16 7 -16 15 0 8 -6 15 -12 15 -9 0 -8 4 2 10 12 8 10 10 -10 10 -19 0 -22
2 -10 10 11 7 9 11 -13 19 -18 7 -25 15 -21 26 3 8 1 15 -5 15 -6 0 -11 6 -11
14 0 8 -7 17 -16 20 -9 3 -12 11 -8 18 5 8 2 9 -9 5 -11 -4 -14 -2 -10 9 3 8
-1 14 -11 14 -9 0 -15 3 -14 8 1 4 -3 17 -10 28 -6 12 -8 24 -4 28 3 4 -2 4
-12 0 -14 -5 -17 -4 -12 4 4 7 3 12 -2 12 -5 0 -15 13 -22 29 -6 16 -20 31
-31 34 -10 3 -19 11 -19 19 0 10 3 9 10 -2 5 -8 10 -10 10 -5 0 14 -37 45 -45
37 -3 -4 -3 1 1 11 4 12 1 17 -11 17 -9 0 -13 5 -10 10 3 6 1 10 -4 10 -6 0
-11 10 -11 23 0 18 -2 19 -10 7 -8 -12 -10 -11 -10 8 0 12 -5 22 -11 22 -5 0
-7 5 -4 10 3 6 -3 10 -14 10 -12 0 -21 5 -21 11 0 5 5 7 12 3 15 -9 2 14 -25
44 -16 17 -23 19 -30 10 -6 -9 -7 -7 -3 6 4 11 1 23 -5 27 -7 4 -14 15 -15 23
-1 9 2 13 8 10 7 -5 8 -2 2 7 -15 24 -14 41 3 35 13 -5 14 -4 3 9 -10 12 -10
15 0 15 9 0 7 7 -6 22 -16 19 -16 20 -1 9 9 -8 21 -11 24 -7 4 4 3 10 -2 14
-15 10 -18 42 -4 42 7 0 9 10 7 24 -3 14 -1 30 3 37 4 7 4 21 -1 30 -7 11 -5
20 4 28 7 6 15 9 17 7 4 -4 3 52 -1 57 -1 1 -3 12 -4 24 -2 16 1 20 9 13 8 -7
12 -5 12 5 0 8 -6 17 -14 19 -11 5 -11 10 2 30 9 14 17 29 17 33 0 4 4 7 9 6
4 -2 6 4 2 13 -4 11 -8 12 -13 4 -5 -9 -9 -9 -14 -1 -4 6 -3 11 2 11 5 0 12 8
16 18 3 9 9 24 12 32 5 13 4 13 -5 0 -6 -8 -11 -10 -11 -4 0 5 5 15 10 20 15
15 22 56 8 48 -7 -5 -8 -2 -3 6 9 14 14 62 6 55 -2 -3 -10 0 -17 5 -8 8 -16 6
-27 -5z m4 -752 c13 -16 12 -17 -3 -4 -10 7 -18 15 -18 17 0 8 8 3 21 -13z
m454 -753 c3 -5 1 -10 -4 -10 -6 0 -11 5 -11 10 0 6 2 10 4 10 3 0 8 -4 11
-10z"/>
<path d="M2270 3315 c0 -7 30 -13 34 -7 3 4 -4 9 -15 9 -10 1 -19 0 -19 -2z"/>
<path d="M2323 3315 c3 -6 -6 -15 -19 -22 -13 -6 -22 -8 -19 -4 2 4 -1 8 -8 8
-7 0 -12 -14 -12 -33 0 -25 3 -30 13 -22 15 13 16 -4 1 -19 -8 -8 -7 -13 2
-18 8 -6 10 -4 4 6 -7 12 -6 12 6 0 11 -10 11 -15 2 -18 -7 -3 -13 -9 -13 -14
0 -6 4 -8 8 -5 10 6 9 -25 -1 -42 -6 -8 -3 -10 7 -6 15 6 17 -11 3 -33 -5 -8
-3 -13 3 -13 6 0 9 -4 5 -9 -3 -5 2 -17 11 -25 14 -15 14 -16 -6 -16 -12 0
-18 -4 -15 -10 4 -6 12 -7 18 -3 7 4 6 -1 -2 -10 -12 -15 -12 -17 1 -12 9 4
15 0 15 -9 0 -8 -3 -13 -7 -11 -4 2 -7 -3 -7 -11 0 -9 6 -13 15 -9 11 4 12 2
4 -8 -6 -7 -8 -18 -3 -25 4 -6 6 -33 5 -58 -1 -30 3 -53 12 -61 15 -15 19 -38
6 -29 -5 3 -6 -8 -4 -24 2 -17 7 -28 11 -26 4 3 8 -5 8 -17 2 -17 0 -18 -7 -7
-7 11 -9 10 -7 -7 0 -12 4 -20 8 -17 4 2 9 -10 11 -26 3 -21 -1 -35 -14 -47
-10 -9 -18 -22 -18 -30 0 -7 -7 -13 -15 -13 -8 0 -15 -7 -15 -16 0 -10 -5 -14
-15 -10 -13 5 -14 2 -4 -15 6 -12 7 -19 2 -16 -4 2 -17 -4 -27 -14 -12 -11
-14 -19 -7 -19 7 0 9 -5 6 -10 -4 -6 -10 -8 -15 -5 -9 6 -41 -34 -36 -44 2 -3
-6 -15 -17 -26 -11 -11 -17 -14 -13 -8 5 9 2 11 -9 7 -14 -6 -14 -8 2 -21 10
-8 14 -13 8 -11 -5 3 -21 -7 -35 -20 -14 -14 -19 -22 -12 -18 27 16 10 -6 -20
-25 -26 -16 -28 -19 -9 -14 21 6 22 5 10 -8 -8 -8 -17 -13 -21 -10 -5 2 -8 -3
-8 -11 0 -8 -5 -18 -12 -22 -7 -5 -8 -3 -3 6 6 9 4 11 -4 6 -7 -5 -10 -14 -7
-22 3 -8 -1 -17 -9 -20 -8 -4 -15 -13 -15 -21 0 -8 -5 -11 -12 -7 -8 5 -9 2
-5 -9 4 -10 2 -16 -6 -14 -7 1 -11 -4 -10 -10 2 -7 -2 -13 -8 -13 -5 0 -7 -4
-4 -10 4 -6 -1 -7 -11 -3 -10 4 -15 2 -11 -3 7 -12 -2 -27 -28 -43 l-20 -13
20 6 c12 4 6 -6 -18 -25 -31 -26 -35 -34 -25 -46 10 -12 9 -14 -4 -11 -9 1
-17 -1 -16 -6 0 -5 -6 -12 -14 -17 -7 -5 -13 -13 -13 -18 0 -6 -9 -17 -20 -26
-11 -9 -15 -14 -9 -11 6 3 11 -1 11 -8 0 -8 -8 -11 -21 -8 -12 3 -17 1 -13 -4
4 -4 -3 -14 -15 -22 -13 -7 -15 -11 -5 -8 9 3 17 1 17 -4 0 -6 -4 -10 -10 -10
-5 0 -7 -7 -4 -15 4 -8 10 -15 16 -15 5 0 7 4 3 9 -3 5 -1 13 5 16 6 4 9 1 8
-7 -2 -8 7 -13 24 -13 15 1 26 -4 25 -9 -1 -5 9 -10 23 -10 14 -1 24 -6 23
-12 -1 -6 4 -11 12 -11 8 0 12 4 9 8 -2 4 0 10 6 14 5 3 10 -1 10 -11 0 -13 3
-14 14 -5 11 10 16 9 24 -5 7 -12 18 -15 42 -12 22 3 34 0 38 -10 4 -13 7 -12
13 4 7 17 8 17 8 -3 1 -20 4 -21 26 -13 20 8 23 6 18 -7 -5 -13 -3 -14 15 -4
17 9 22 9 22 0 0 -8 5 -7 17 2 11 9 14 10 9 2 -5 -9 -2 -11 8 -7 9 3 14 10 11
14 -3 5 -1 11 5 15 6 4 8 10 5 15 -3 4 2 10 10 13 7 3 21 20 30 36 14 28 14
30 -2 25 -11 -4 -8 1 7 12 14 11 25 24 26 29 3 23 17 55 25 55 4 0 14 10 20
23 10 19 10 21 -2 12 -8 -5 -3 1 11 14 14 13 19 20 13 17 -7 -4 -13 -2 -13 3
0 6 5 11 11 11 6 0 9 7 6 14 -4 11 -1 13 10 9 11 -4 14 -2 9 5 -4 7 -2 12 4
12 6 0 8 5 5 10 -3 6 -1 10 6 10 8 0 7 5 -2 17 -12 15 -12 16 2 11 17 -7 38
25 46 67 2 11 9 24 15 30 8 7 9 6 3 -4 -6 -10 -4 -12 4 -7 9 6 9 11 0 22 -6 8
-9 17 -5 21 3 3 6 1 6 -6 0 -7 5 -9 10 -6 6 4 8 11 5 16 -4 5 -2 9 3 9 6 0 9
8 8 18 0 9 4 16 11 15 8 -2 10 4 6 14 -4 10 -2 14 5 9 11 -7 28 29 23 52 -1 7
5 15 14 18 8 3 15 15 15 25 0 11 7 22 15 25 11 5 13 10 5 19 -8 10 -8 15 1 21
8 5 9 3 4 -6 -6 -9 -4 -11 4 -6 7 5 10 15 6 23 -4 12 -2 13 8 5 10 -9 13 -5
12 16 -1 29 14 62 28 62 4 0 5 -5 1 -12 -4 -7 -3 -8 5 -4 9 6 9 11 0 22 -6 8
-9 15 -5 15 3 1 11 3 16 4 6 1 13 3 16 4 4 0 1 8 -6 16 -10 12 -9 15 6 15 15
0 16 2 5 9 -11 7 -11 9 0 14 10 4 11 8 3 14 -6 4 -10 15 -9 24 2 9 -2 23 -7
30 -8 11 -9 10 -4 -4 4 -11 2 -16 -5 -11 -6 3 -9 15 -6 25 3 11 1 17 -4 13 -5
-3 -9 4 -9 16 0 12 -4 18 -10 15 -5 -3 -10 3 -10 14 0 12 -6 21 -12 21 -10 0
-10 2 0 9 11 7 11 9 -2 14 -8 3 -20 16 -26 28 -8 14 -8 19 -1 15 7 -5 8 -1 5
9 -4 9 -13 14 -21 11 -11 -4 -11 -1 -3 14 8 15 8 20 -3 20 -7 0 -13 10 -14 21
-1 12 -7 27 -14 33 -9 8 -10 7 -4 -3 5 -9 4 -12 -3 -7 -6 4 -8 14 -5 23 5 12
3 14 -8 8 -12 -8 -12 -6 0 9 8 9 10 16 5 14 -5 -2 -9 1 -9 5 0 5 -8 13 -19 19
-15 8 -16 12 -5 19 11 7 11 9 1 9 -8 0 -10 5 -6 12 5 8 2 9 -10 5 -14 -5 -17
-3 -12 8 3 8 1 15 -5 15 -6 0 -7 5 -4 10 4 6 -4 20 -17 31 -13 11 -18 18 -11
15 6 -4 14 -2 18 4 3 5 -1 10 -10 10 -10 0 -15 5 -12 14 3 7 -8 30 -24 50 -17
20 -28 39 -26 44 3 4 -1 16 -9 27 -12 16 -14 17 -14 2 0 -9 5 -17 12 -17 6 0
8 -3 4 -7 -4 -4 -16 3 -28 17 -11 14 -17 20 -15 15z m81 -101 c3 -8 2 -12 -4
-9 -6 3 -10 10 -10 16 0 14 7 11 14 -7z m130 -889 c-4 -8 -11 -15 -16 -15 -6
0 -5 6 2 15 7 8 14 15 16 15 2 0 1 -7 -2 -15z m-280 -520 c-4 -8 -11 -15 -16
-15 -6 0 -5 6 2 15 7 8 14 15 16 15 2 0 1 -7 -2 -15z"/>
<path d="M1179 3053 c-13 -16 -12 -17 4 -4 9 7 17 15 17 17 0 8 -8 3 -21 -13z"/>
<path d="M2346 2614 c-5 -14 -4 -15 9 -4 17 14 19 20 6 20 -5 0 -12 -7 -15
-16z"/>
<path d="M2754 2452 c4 -7 3 -12 -3 -12 -10 0 -27 -38 -23 -52 1 -5 -5 -8 -13
-8 -9 0 -12 -6 -8 -17 4 -11 3 -14 -5 -9 -7 4 -12 1 -12 -8 0 -8 -9 -20 -21
-26 -11 -6 -19 -16 -16 -23 2 -6 -5 -19 -15 -29 -10 -10 -16 -23 -13 -27 2 -5
-2 -12 -11 -15 -10 -4 -13 -2 -8 6 4 6 3 8 -4 5 -5 -4 -9 -18 -7 -32 2 -20 -1
-23 -11 -14 -10 8 -12 6 -9 -10 2 -12 0 -19 -6 -16 -5 4 -9 1 -9 -5 0 -6 -5
-8 -12 -4 -9 6 -9 3 0 -9 12 -14 11 -16 -8 -12 -18 3 -20 2 -10 -10 8 -10 9
-15 2 -15 -6 0 -14 -9 -17 -21 -4 -11 -13 -18 -20 -15 -8 3 -12 -2 -10 -12 4
-25 -6 -36 -17 -21 -6 10 -7 6 -3 -10 6 -20 4 -23 -10 -17 -15 5 -16 4 -5 -9
11 -13 11 -16 -1 -13 -8 2 -13 -4 -13 -14 1 -10 -2 -16 -6 -13 -4 3 -14 -3
-21 -12 -12 -14 -12 -16 1 -8 13 8 13 6 1 -8 -7 -9 -18 -14 -25 -10 -6 4 -4
-2 4 -12 9 -11 10 -16 3 -11 -8 4 -17 -2 -24 -18 -7 -14 -17 -23 -22 -19 -6 4
-8 0 -4 -10 3 -10 2 -17 -4 -17 -6 0 -7 -4 -4 -10 4 -6 -1 -7 -12 -3 -16 6
-16 5 -4 -10 12 -15 12 -17 -4 -11 -12 5 -16 4 -11 -4 3 -6 1 -14 -5 -17 -5
-4 -8 -13 -5 -21 3 -8 0 -11 -8 -8 -8 3 -17 0 -22 -7 -5 -8 -3 -10 7 -5 8 4 1
-5 -16 -19 -17 -16 -23 -25 -12 -21 9 3 17 1 17 -4 0 -6 -7 -10 -16 -10 -10 0
-4 -10 18 -30 18 -17 42 -30 53 -30 16 0 17 -2 5 -10 -12 -8 -9 -9 12 -8 15 1
24 6 21 12 -4 5 3 7 15 4 12 -4 20 -2 16 3 -5 8 2 11 22 8 3 0 12 8 20 18 12
16 15 16 24 3 8 -13 10 -12 10 3 0 10 5 15 10 12 6 -3 10 -2 10 2 0 8 14 11
57 15 6 1 8 8 5 17 -5 14 -3 14 11 2 14 -11 18 -11 23 2 3 9 12 13 21 10 12
-5 14 -3 8 7 -6 10 -4 12 8 7 10 -3 17 -2 17 3 0 6 9 10 19 10 11 0 23 5 27
12 5 7 3 8 -6 3 -9 -6 -11 -4 -5 4 5 9 10 10 18 2 7 -7 21 -1 45 17 20 15 33
21 28 15 -4 -8 -2 -13 5 -13 7 0 9 8 6 21 -5 17 -3 18 10 8 10 -9 17 -9 21 -2
4 5 15 9 24 8 10 -2 15 2 12 10 -3 7 0 16 7 21 8 5 10 3 4 -6 -6 -10 -4 -12 9
-7 10 4 22 7 27 7 6 0 8 4 4 9 -3 5 0 13 6 17 7 4 9 3 5 -4 -3 -6 -2 -13 4
-17 5 -3 10 1 10 9 0 9 5 17 10 17 6 1 15 3 20 4 6 1 13 3 17 4 3 0 -2 11 -13
23 -16 18 -17 21 -2 15 12 -4 15 -2 11 8 -3 8 -10 12 -16 8 -6 -4 -8 2 -5 15
4 15 0 25 -10 32 -14 8 -14 9 -2 10 10 0 11 3 4 8 -6 4 -17 18 -24 32 -12 23
-12 24 3 11 23 -18 21 -9 -2 18 -11 13 -17 29 -14 37 3 8 -1 14 -8 14 -11 0
-11 3 1 10 10 6 11 10 3 10 -7 0 -13 9 -13 21 0 11 -4 17 -10 14 -14 -9 -13 8
2 23 9 9 9 12 -2 12 -7 0 -10 3 -7 7 4 3 -1 12 -11 20 -9 8 -11 12 -4 8 18 -9
15 15 -5 38 -10 11 -13 18 -8 14 6 -3 11 3 11 13 0 13 -4 16 -12 10 -14 -12
-27 0 -15 14 12 15 -6 59 -20 50 -8 -4 -9 -3 -5 5 4 6 11 9 15 7 4 -3 8 1 8 9
0 8 -4 12 -9 9 -4 -3 -8 2 -8 10 0 19 -11 20 -30 4 -12 -11 -12 -10 -2 4 10
12 10 18 1 24 -8 4 -9 3 -5 -4z m-463 -799 c13 -16 12 -17 -3 -4 -10 7 -18 15
-18 17 0 8 8 3 21 -13z"/>
<path d="M706 2438 c5 -7 2 -9 -9 -5 -12 5 -14 0 -11 -20 3 -15 7 -30 10 -35
3 -5 0 -7 -6 -6 -7 2 -14 -7 -16 -20 -3 -16 0 -21 8 -16 7 4 8 3 4 -5 -4 -6
-11 -9 -16 -6 -5 3 -11 1 -15 -5 -3 -5 -1 -10 6 -10 7 0 4 -7 -7 -15 -19 -15
-19 -15 1 -9 18 5 18 4 3 -8 -13 -11 -14 -18 -5 -33 9 -18 9 -18 -5 -7 -14 11
-16 10 -14 -12 2 -18 -2 -26 -13 -26 -14 0 -14 -2 -1 -10 13 -9 13 -10 0 -10
-13 0 -13 -1 0 -10 12 -8 12 -10 1 -10 -11 0 -11 -3 0 -17 10 -11 10 -14 2 -9
-8 4 -13 2 -13 -7 0 -8 -7 -18 -15 -21 -13 -4 -14 -10 -5 -26 8 -14 8 -20 0
-20 -6 0 -9 -4 -6 -9 4 -5 0 -12 -6 -14 -10 -4 -10 -6 0 -6 10 -1 10 -4 0 -15
-7 -8 -17 -11 -23 -8 -5 3 -4 -2 4 -11 11 -14 11 -17 0 -17 -11 0 -11 -2 1
-10 12 -7 12 -10 1 -10 -7 0 -11 -6 -8 -14 3 -8 -2 -17 -11 -21 -16 -6 -16 -7
0 -16 10 -6 15 -16 11 -25 -5 -13 -2 -15 17 -9 17 5 21 4 15 -6 -6 -9 -3 -11
10 -5 15 5 16 4 6 -8 -11 -13 -8 -14 19 -6 29 8 30 8 18 -7 -8 -11 -8 -14 -1
-10 7 4 17 0 23 -10 11 -17 11 -17 6 1 -6 18 -5 18 16 2 42 -30 61 -39 53 -26
-5 8 -1 8 13 -1 12 -7 18 -18 14 -24 -3 -5 2 -4 11 4 14 11 17 11 17 -1 0 -7
9 -15 20 -16 11 -1 28 -3 39 -4 12 -1 17 -8 13 -17 -4 -10 0 -13 16 -9 12 3
21 3 20 -1 -2 -19 4 -22 19 -10 15 12 16 12 10 -5 -6 -16 -5 -17 8 -6 12 10
15 9 15 -6 0 -16 2 -17 10 -4 8 13 10 12 10 -3 0 -10 5 -15 10 -12 6 3 10 1
10 -4 0 -6 5 -11 11 -11 5 0 8 4 5 8 -3 5 1 9 9 9 8 0 12 -4 10 -8 -3 -3 2
-12 10 -19 11 -9 15 -9 15 -1 0 7 5 9 10 6 6 -4 7 -11 4 -17 -4 -6 1 -8 14 -4
12 4 23 2 28 -5 5 -8 3 -9 -7 -4 -12 8 -12 6 0 -8 15 -18 26 -23 16 -7 -10 16
7 12 27 -7 18 -16 18 -16 12 0 -5 13 -2 16 10 11 10 -4 18 0 22 11 4 9 13 14
20 11 8 -3 11 0 8 8 -3 8 0 17 7 22 7 4 10 3 5 -4 -3 -6 -3 -13 2 -16 14 -8 8
59 -6 77 -8 9 -10 22 -6 28 4 7 3 10 -2 7 -11 -6 -45 28 -36 36 3 3 0 6 -7 6
-7 0 -9 5 -6 10 3 6 -2 10 -12 10 -15 0 -16 2 -3 10 13 8 12 10 -2 10 -16 0
-23 11 -19 33 0 4 -6 7 -14 7 -8 0 -16 7 -16 15 -3 29 -4 33 -13 42 -5 5 -6 3
-2 -4 4 -7 3 -13 -2 -13 -5 0 -12 14 -15 30 -4 20 -13 30 -24 30 -15 0 -16 2
-3 10 13 8 12 10 -4 10 -12 0 -16 5 -12 16 3 8 2 12 -3 9 -5 -3 -12 4 -16 15
-3 11 -11 20 -16 20 -6 0 -8 10 -4 23 4 13 3 17 -2 10 -6 -8 -14 -9 -23 -3
-10 7 -11 10 -2 10 7 0 4 9 -8 23 -67 73 -66 72 -45 57 17 -12 17 -10 -3 11
-12 14 -19 29 -15 33 4 4 -1 4 -10 0 -10 -3 -17 -3 -16 2 5 27 -2 43 -16 38
-11 -5 -13 -2 -9 10 4 10 0 18 -10 22 -9 3 -16 15 -16 25 0 11 -7 19 -16 19
-8 0 -12 5 -9 10 3 6 1 10 -4 10 -6 0 -11 5 -11 10 0 13 -51 70 -62 70 -5 0
-6 -5 -2 -12z"/>
<path d="M735 2440 c3 -5 8 -10 11 -10 2 0 4 5 4 10 0 6 -5 10 -11 10 -5 0 -7
-4 -4 -10z"/>
<path d="M1743 1776 c6 -16 5 -17 -7 -7 -11 9 -16 9 -22 0 -4 -8 -3 -9 4 -5 8
5 10 1 5 -9 -3 -9 -9 -13 -12 -8 -3 5 -15 13 -25 16 -15 6 -17 5 -8 -6 10 -11
6 -13 -18 -12 -20 1 -30 -3 -30 -12 0 -8 5 -11 12 -7 7 5 8 3 3 -5 -4 -8 -11
-9 -17 -3 -11 11 -80 -10 -85 -25 -2 -6 -15 -8 -28 -5 -15 2 -25 0 -25 -7 0
-7 -5 -9 -12 -5 -7 5 -9 2 -6 -7 5 -12 -1 -14 -23 -11 -19 3 -29 0 -29 -8 0
-9 -3 -10 -14 -1 -10 9 -17 7 -27 -6 -13 -17 -13 -17 6 -3 19 14 19 14 6 -3
-11 -14 -16 -15 -29 -5 -11 9 -14 9 -9 1 4 -6 3 -14 -2 -17 -5 -4 -12 -2 -16
4 -9 15 -27 1 -21 -17 3 -8 1 -11 -4 -8 -6 3 -16 3 -22 -2 -21 -12 -39 -12
-31 0 5 8 2 8 -9 0 -8 -7 -19 -9 -23 -5 -5 4 -5 -1 -2 -10 4 -12 2 -15 -9 -11
-8 3 -14 -1 -14 -8 0 -11 -3 -11 -10 1 -7 11 -10 11 -10 2 0 -7 -5 -10 -11 -6
-6 3 -4 -8 5 -24 10 -19 12 -33 6 -37 -6 -4 -5 -13 2 -25 7 -10 17 -16 23 -12
5 3 3 -3 -5 -13 -14 -17 -13 -18 4 -12 15 6 16 5 8 -6 -7 -8 -7 -18 -2 -27 8
-13 10 -13 10 -1 0 8 3 12 6 8 3 -3 1 -14 -4 -23 -8 -14 -6 -22 6 -32 13 -10
13 -12 2 -7 -13 6 -13 5 0 -7 17 -15 19 -27 6 -47 -7 -11 -5 -13 8 -8 14 6 17
3 12 -9 -7 -17 17 -58 27 -47 4 3 7 1 7 -6 0 -7 5 -9 10 -6 6 4 10 3 9 -2 -1
-4 -1 -15 0 -23 1 -13 2 -13 11 0 8 12 10 12 16 -3 3 -9 13 -17 21 -17 8 0 11
-5 7 -11 -4 -7 1 -7 16 1 13 7 20 8 16 2 -7 -12 33 -44 46 -36 4 3 8 0 8 -6 0
-6 5 -8 12 -4 7 5 9 2 5 -9 -4 -11 -2 -14 9 -10 7 3 14 0 14 -7 0 -6 4 -9 8
-6 5 3 15 -4 22 -15 15 -20 36 -27 24 -7 -4 7 -3 8 4 4 11 -7 7 -31 -10 -53
-6 -7 -7 -17 -4 -22 4 -5 2 -12 -3 -15 -12 -8 -42 4 -36 14 5 8 -39 31 -70 37
-11 2 -27 13 -35 24 -12 15 -18 17 -28 7 -9 -9 -12 -9 -12 0 0 7 -4 12 -10 12
-5 0 -9 -18 -8 -40 1 -21 5 -37 9 -34 4 2 8 -4 9 -13 1 -49 5 -63 15 -59 7 2
12 -2 12 -10 0 -7 -5 -11 -11 -8 -6 3 -3 -1 6 -9 13 -10 15 -16 6 -25 -9 -9
-9 -12 0 -12 7 0 12 -5 12 -11 0 -5 -5 -7 -12 -3 -7 4 -8 3 -4 -5 4 -6 11 -9
16 -6 5 3 11 1 15 -5 3 -5 0 -10 -7 -10 -10 0 -10 -2 1 -9 8 -5 11 -16 8 -26
-4 -10 -3 -14 4 -9 8 4 9 -1 4 -16 -5 -15 -4 -20 4 -16 7 5 11 -2 11 -18 0
-14 6 -26 13 -26 8 0 7 -4 -3 -10 -12 -8 -12 -10 -1 -10 11 0 11 -3 1 -16 -11
-12 -11 -15 1 -12 8 2 13 -3 12 -9 -2 -7 2 -13 8 -13 5 0 7 -4 4 -10 -3 -5 0
-10 7 -10 11 0 11 -2 0 -9 -11 -7 -11 -11 2 -24 18 -17 21 -32 6 -22 -6 3 -7
-1 -4 -9 3 -9 14 -16 23 -16 14 0 14 -2 1 -10 -13 -8 -13 -13 2 -40 10 -17 14
-29 9 -26 -4 3 -8 -1 -8 -8 0 -8 6 -12 14 -9 12 5 17 -7 14 -34 -1 -7 5 -13
14 -13 10 0 13 -5 9 -12 -6 -10 -4 -10 8 0 13 10 18 10 24 1 5 -8 3 -9 -6 -4
-9 5 -11 4 -6 -4 4 -6 13 -8 19 -4 7 4 18 8 25 9 10 2 11 -1 1 -12 -10 -12
-10 -15 2 -12 8 2 13 -3 12 -9 -2 -7 2 -13 8 -13 6 0 8 9 4 21 -6 19 -5 20 7
8 16 -15 20 -39 6 -39 -5 0 -6 -5 -2 -11 5 -8 1 -8 -13 0 -11 6 -23 7 -27 4
-3 -3 -6 -2 -6 4 0 5 -7 10 -15 10 -8 0 -11 -5 -8 -10 4 -6 0 -8 -10 -4 -12 5
-15 0 -11 -25 4 -33 19 -49 40 -41 6 2 15 -1 19 -7 5 -8 11 -8 21 1 8 6 17 9
21 6 3 -4 15 -2 26 4 14 8 18 8 13 0 -5 -7 3 -9 24 -5 21 5 30 3 30 -7 0 -8 6
-5 15 7 8 11 14 14 15 6 0 -10 5 -10 21 -1 15 8 19 8 15 0 -4 -6 -1 -11 8 -11
8 0 17 6 19 13 4 9 6 9 6 0 1 -7 6 -13 12 -13 5 0 7 6 3 13 -5 8 -2 7 9 -2 10
-8 20 -11 24 -7 3 3 0 6 -8 7 -8 0 -6 3 5 8 27 10 29 39 5 65 -11 11 -19 15
-17 7 2 -7 -3 -16 -11 -19 -9 -3 -11 0 -6 9 5 8 -1 6 -12 -4 -14 -12 -23 -15
-28 -7 -3 5 -12 7 -18 4 -8 -4 -7 -2 1 7 11 12 14 12 22 -1 7 -11 10 -11 10
-2 0 7 -7 15 -15 19 -24 9 16 34 45 28 13 -2 20 -2 17 2 -13 12 27 31 46 22 9
-6 17 -6 16 -2 -3 20 2 34 11 28 14 -9 13 8 -2 23 -9 9 -9 12 1 12 8 0 11 6 7
16 -5 12 -2 15 11 10 14 -6 15 -5 6 5 -10 10 -9 15 5 26 16 14 16 14 -2 8 -19
-6 -19 -5 -2 14 15 16 16 24 7 35 -9 11 -9 16 0 22 8 4 9 3 5 -4 -4 -7 -1 -12
9 -12 9 0 13 5 9 11 -3 6 0 15 7 20 10 6 11 9 2 9 -20 0 -15 20 5 20 10 0 13
3 7 8 -15 10 -12 38 3 35 7 -2 12 2 12 7 0 6 -5 10 -12 10 -6 0 -3 7 8 16 10
8 13 13 7 9 -9 -4 -11 -1 -7 9 3 9 9 14 13 11 4 -2 8 2 8 10 0 8 -4 12 -9 9
-4 -3 -8 0 -8 5 0 6 8 11 18 11 14 0 15 2 2 10 -11 7 -11 10 -2 10 7 0 10 5 7
10 -3 6 -2 10 4 10 6 0 8 6 5 14 -3 8 -1 17 5 20 6 4 7 14 4 23 -4 10 -2 14 5
9 6 -3 14 -1 18 5 4 8 3 9 -4 5 -7 -4 -12 -2 -12 3 0 6 6 11 13 11 8 0 7 4 -3
10 -10 6 -11 10 -2 10 6 0 12 8 12 18 0 10 6 24 13 31 10 11 10 13 0 7 -7 -4
-13 -3 -13 2 0 6 7 12 15 16 8 3 15 9 14 13 -1 4 0 10 1 13 7 19 7 39 -1 34
-5 -3 -9 1 -9 8 0 9 -3 9 -10 -2 -6 -10 -10 -11 -10 -2 0 6 -5 12 -11 12 -5 0
-7 -5 -3 -12 5 -8 2 -9 -9 -5 -10 4 -16 2 -14 -6 1 -7 -5 -12 -13 -12 -8 0
-22 -7 -30 -15 -11 -12 -13 -12 -5 -1 7 10 2 10 -17 -3 -16 -10 -28 -22 -28
-27 0 -5 -7 -6 -16 -2 -9 3 -20 0 -25 -8 -6 -11 -9 -8 -9 9 0 12 -4 22 -10 22
-5 0 -10 9 -10 21 0 13 4 18 12 13 7 -4 8 -3 4 4 -8 13 28 35 39 24 5 -4 6 0
2 10 -4 12 0 15 19 13 20 -2 22 0 13 12 -9 11 -9 12 4 8 8 -4 18 -2 22 4 3 6
15 11 26 11 11 0 18 4 15 9 -3 5 6 12 19 15 17 4 23 11 18 19 -4 7 0 7 10 -2
15 -12 17 -12 11 2 -4 12 -1 15 15 12 12 -2 19 0 16 6 -4 5 -1 9 5 9 6 0 8 5
4 13 -6 9 -5 9 8 -1 13 -10 18 -9 29 5 13 17 13 17 -6 3 -19 -14 -19 -14 -6 2
7 10 21 18 30 18 14 0 14 2 1 10 -13 9 -13 12 2 20 9 6 15 17 12 25 -4 8 -11
12 -17 8 -6 -3 -7 -1 -3 6 4 6 11 9 16 6 5 -3 11 -1 15 5 3 5 1 10 -5 10 -6 0
-5 11 5 30 9 17 12 30 8 30 -5 0 0 5 10 11 10 6 14 15 10 22 -12 19 -12 36 -1
44 6 3 8 1 4 -5 -3 -6 -2 -13 3 -16 10 -7 9 13 -2 31 -4 6 -2 15 4 18 6 4 8
18 4 34 -6 24 -5 25 8 7 12 -16 14 -16 14 -2 0 9 -4 16 -9 16 -5 0 -7 3 -5 8
3 4 -5 8 -16 9 -47 5 -61 10 -67 28 -6 18 -7 18 -13 0 -7 -16 -10 -15 -33 10
-21 23 -27 25 -41 13 -12 -9 -15 -9 -9 0 5 8 0 12 -17 12 -14 0 -28 7 -31 16
-3 8 -11 12 -17 8 -6 -3 -15 0 -20 7 -7 12 -9 12 -9 0 0 -9 -6 -7 -19 8 -12
14 -22 18 -26 11 -3 -6 -11 -8 -16 -4 -5 3 -7 9 -4 13 2 5 -7 6 -20 3 -15 -2
-25 0 -25 7 0 7 -4 9 -10 6 -5 -3 -10 1 -10 9 0 9 -5 16 -11 16 -5 0 -8 -4 -5
-9 8 -12 -57 11 -65 23 -4 5 -12 5 -18 2 -6 -4 -14 0 -17 9 -5 13 -9 13 -22 3
-9 -7 -13 -8 -10 -3 3 6 -1 17 -10 25 -14 13 -15 12 -9 -4z m-229 -1282 c3 -8
2 -12 -4 -9 -6 3 -10 10 -10 16 0 14 7 11 14 -7z"/>
<path d="M1245 1701 c-3 -5 -2 -12 3 -15 5 -3 9 1 9 9 0 17 -3 19 -12 6z"/>
<path d="M1279 1603 c-13 -16 -12 -17 4 -4 9 7 17 15 17 17 0 8 -8 3 -21 -13z"/>
<path d="M354 1492 c4 -7 2 -12 -4 -12 -6 0 -8 -5 -4 -11 4 -7 -2 -6 -17 2
-21 11 -23 11 -11 -3 10 -13 10 -17 0 -21 -10 -4 -9 -6 1 -6 11 -1 10 -5 -5
-16 -10 -8 -14 -15 -9 -14 23 3 27 -2 14 -18 -12 -15 -12 -16 1 -8 13 8 13 7
1 -8 -11 -14 -11 -17 0 -17 12 0 12 -2 0 -9 -11 -7 -11 -9 0 -14 10 -4 10 -6
2 -6 -7 -1 -13 -6 -13 -12 0 -5 6 -7 13 -3 8 5 8 2 -2 -9 -10 -13 -10 -17 -1
-17 8 0 9 -4 3 -12 -8 -11 -10 -33 -3 -40 7 -10 7 -37 -1 -32 -5 3 -9 0 -9 -5
0 -6 6 -11 13 -11 8 0 7 -4 -3 -10 -12 -8 -12 -10 -1 -10 9 0 10 -4 4 -12 -8
-11 -10 -33 -3 -40 7 -10 7 -37 -1 -32 -5 3 -9 0 -9 -5 0 -6 6 -11 13 -11 8 0
7 -4 -3 -10 -12 -8 -12 -10 -1 -10 9 0 10 -4 4 -12 -8 -11 -10 -33 -3 -40 7
-10 7 -37 -1 -32 -5 3 -9 1 -9 -5 0 -5 6 -12 13 -15 10 -5 10 -7 0 -12 -7 -3
-13 -10 -13 -15 0 -6 4 -8 8 -5 5 3 9 -1 9 -9 0 -8 -4 -12 -8 -10 -9 6 -6 -16
4 -32 5 -8 4 -13 -2 -13 -6 0 -11 -5 -11 -11 0 -5 4 -8 8 -5 5 3 9 -1 9 -9 0
-8 -4 -12 -8 -10 -9 6 -6 -16 4 -32 5 -8 4 -13 -2 -13 -6 0 -11 -5 -11 -11 0
-5 4 -8 8 -5 11 6 9 -34 -1 -51 -5 -8 -3 -13 3 -13 6 0 8 -4 5 -10 -3 -5 -1
-10 5 -10 7 0 10 -7 7 -14 -4 -10 -1 -13 8 -9 8 3 12 9 9 14 -3 5 -1 9 5 9 5
0 12 -6 14 -12 4 -10 6 -10 6 0 1 6 6 12 12 12 5 0 8 -4 5 -8 -3 -5 1 -9 9 -9
8 0 12 4 9 9 -3 4 0 8 5 8 6 0 11 -4 11 -10 0 -5 4 -10 10 -10 5 0 7 8 4 18
-5 14 -4 15 5 2 12 -17 33 -20 43 -5 5 6 12 5 20 -4 11 -11 11 -13 -1 -6 -10
5 -12 4 -7 -4 4 -6 12 -9 17 -5 5 3 7 10 4 15 -4 5 -1 9 4 9 6 0 11 -6 11 -12
0 -9 3 -9 8 -3 8 13 22 13 41 1 10 -6 12 -5 7 2 -4 7 -2 12 3 12 6 0 11 -4 11
-10 0 -5 5 -10 11 -10 6 0 9 6 6 13 -3 8 1 14 9 14 7 0 11 -4 9 -8 -3 -4 2 -9
10 -13 8 -3 15 0 15 6 0 7 5 7 14 -1 11 -9 20 -9 35 -2 14 8 21 8 24 -2 3 -6
4 3 3 21 -2 18 1 32 7 32 7 0 7 4 -1 12 -15 15 -16 32 -1 22 8 -4 8 0 0 15 -9
16 -9 21 1 21 9 0 9 3 -2 11 -11 8 -12 12 -2 16 6 2 9 10 5 15 -11 18 -12 68
-1 62 6 -4 5 4 -2 16 -11 20 -10 22 5 16 13 -5 16 -2 11 9 -3 10 -2 14 5 9 6
-3 8 -15 6 -26 -4 -14 -2 -17 7 -9 10 8 11 4 8 -19 -3 -19 0 -30 8 -30 7 0 10
-8 7 -20 -4 -14 0 -20 11 -20 15 0 15 -2 2 -10 -12 -8 -12 -10 -1 -10 11 0 11
-3 0 -17 -8 -10 -9 -14 -2 -10 6 4 14 3 18 -3 4 -6 11 -7 17 -4 7 4 8 2 4 -5
-4 -6 -12 -9 -17 -6 -15 10 -10 -5 7 -22 8 -9 13 -24 11 -35 -3 -10 -1 -16 4
-12 5 3 9 -2 9 -11 0 -9 4 -14 8 -11 5 3 9 -1 9 -9 0 -8 -5 -11 -11 -8 -6 4
-4 -1 4 -11 12 -16 14 -30 11 -81 -1 -8 -6 -15 -12 -15 -5 0 -7 6 -3 13 6 9 5
9 -8 0 -8 -7 -18 -10 -22 -6 -4 4 -4 0 -1 -9 4 -9 1 -19 -6 -24 -7 -4 -10 -3
-5 4 3 6 -3 16 -15 22 -15 8 -19 9 -15 1 11 -17 -5 -13 -27 6 -13 11 -17 12
-12 4 6 -11 4 -13 -9 -8 -9 4 -15 3 -12 -2 3 -5 -1 -12 -10 -15 -8 -3 -13 -2
-11 2 3 4 -2 14 -11 22 -14 13 -15 12 -9 -3 3 -9 2 -19 -2 -22 -5 -3 -12 2
-15 11 -3 8 -11 12 -16 9 -6 -4 -19 -1 -28 7 -15 11 -15 11 -5 -2 10 -14 7
-16 -22 -16 -18 0 -31 4 -28 9 3 5 -4 4 -15 -2 -14 -7 -23 -8 -27 -1 -4 6 -11
7 -17 4 -6 -4 -15 0 -20 7 -8 11 -9 10 -5 -3 7 -19 -19 -33 -29 -16 -5 7 -2 8
7 3 8 -5 11 -4 6 0 -10 12 -47 14 -40 2 3 -5 0 -7 -8 -5 -8 3 -13 11 -11 17 1
7 -2 9 -8 6 -6 -4 -9 -13 -6 -21 3 -8 0 -11 -10 -7 -7 3 -14 0 -14 -7 0 -10
-3 -10 -14 -1 -12 10 -13 8 -9 -8 3 -12 9 -19 12 -16 4 2 8 -2 8 -10 0 -8 -4
-12 -8 -10 -4 3 -9 -2 -12 -9 -4 -10 0 -13 14 -11 17 3 19 2 9 -10 -6 -8 -8
-20 -4 -26 4 -8 3 -9 -4 -5 -7 4 -12 3 -12 -3 0 -5 6 -12 13 -14 10 -4 10 -6
0 -6 -7 -1 -13 -6 -13 -12 0 -5 5 -7 12 -3 7 5 8 3 2 -7 -13 -22 -14 -40 -1
-32 7 4 6 -1 -2 -10 -13 -16 -8 -22 13 -18 5 1 4 -5 -4 -13 -7 -9 -9 -16 -5
-16 5 0 0 -9 -10 -20 -14 -15 -15 -19 -4 -15 12 5 15 -2 14 -32 -1 -21 -6 -46
-10 -57 -9 -21 10 -37 33 -28 9 3 13 1 10 -4 -4 -5 4 -9 17 -9 13 0 21 3 19 6
-2 4 3 10 12 13 8 3 12 2 9 -4 -4 -6 13 -8 44 -6 30 3 51 0 51 -5 0 -6 5 -7
10 -4 6 4 7 12 3 18 -3 7 4 3 17 -8 13 -11 20 -15 17 -9 -4 7 3 12 18 12 14 0
23 -4 20 -8 -2 -4 7 -5 20 -2 14 2 22 9 18 15 -4 6 -1 7 8 1 20 -13 133 -13
141 0 5 8 8 8 8 0 0 -8 21 -11 63 -9 36 2 68 -2 76 -9 11 -8 13 -8 8 0 -4 7 0
15 9 18 8 3 13 2 10 -3 -3 -5 3 -11 14 -14 11 -3 18 -1 14 4 -8 13 10 11 25
-3 9 -8 11 -8 8 -2 -4 7 0 15 9 18 9 3 12 2 8 -5 -4 -6 1 -9 12 -8 11 2 25 0
33 -5 9 -6 12 -5 8 1 -4 6 0 14 9 17 8 3 12 2 9 -4 -4 -6 7 -10 24 -10 18 0
31 5 32 13 0 6 4 3 9 -8 5 -11 9 -15 9 -8 1 7 12 9 31 7 16 -3 38 0 47 6 15 9
14 10 -7 5 -21 -5 -22 -4 -8 5 9 6 15 17 12 25 -4 8 -1 15 5 15 6 0 11 5 11
11 0 5 -4 7 -10 4 -6 -4 -7 1 -3 11 4 10 2 15 -4 11 -5 -3 -10 0 -10 8 0 8 3
14 6 13 19 -2 24 4 11 12 -10 6 -11 10 -2 10 6 0 12 5 12 11 0 5 -6 7 -12 3
-8 -5 -7 0 2 11 14 17 13 18 -5 12 -19 -7 -19 -6 -2 7 14 10 15 15 5 19 -10 4
-10 8 2 16 13 9 12 11 -4 11 -20 0 -20 0 0 16 10 8 12 12 4 8 -13 -7 -13 -5
-2 8 10 13 10 17 -4 22 -13 5 -14 10 -6 18 6 6 8 17 5 26 -4 10 -2 13 6 8 14
-9 11 15 -4 27 -6 4 -4 11 5 17 13 8 12 10 -4 10 -20 0 -20 0 0 16 10 8 12 12
4 8 -13 -7 -13 -5 -2 8 10 13 10 17 -4 22 -13 5 -14 10 -6 18 6 6 8 17 5 26
-4 10 -2 13 6 8 14 -9 11 15 -4 26 -6 5 -4 12 5 18 11 7 11 10 2 10 -8 0 -10
5 -6 12 11 18 12 48 2 42 -5 -4 -7 -13 -4 -21 4 -8 1 -11 -5 -8 -6 4 -8 13 -5
21 3 7 1 16 -3 19 -5 2 -11 14 -14 25 -3 11 -1 18 4 14 5 -3 6 2 3 10 -3 9
-11 13 -18 9 -6 -4 -6 0 2 9 10 13 10 19 -3 31 -9 10 -11 18 -5 22 5 3 10 12
9 18 0 9 -2 9 -6 0 -5 -14 -24 -18 -22 -5 4 25 -2 42 -13 36 -10 -6 -10 -4 0
7 14 16 16 33 2 24 -12 -7 -9 23 5 45 6 10 2 9 -12 -3 -20 -17 -20 -17 -21 10
0 50 -2 54 -14 47 -8 -5 -7 0 2 11 12 15 12 17 1 10 -11 -6 -13 -4 -8 9 4 9 3
15 -2 12 -5 -3 -11 1 -15 9 -3 8 0 15 5 15 7 0 4 11 -6 26 -9 15 -12 23 -6 20
6 -4 11 -2 11 3 0 6 -9 11 -19 11 -17 0 -18 4 -11 30 6 21 5 29 -3 27 -7 -1
-13 10 -15 26 -2 15 -8 25 -13 22 -5 -4 -9 -1 -9 4 0 6 6 11 13 11 8 0 8 3 -2
9 -8 5 -11 16 -8 25 4 9 2 15 -5 13 -6 -1 -13 4 -16 12 -3 8 0 11 7 7 6 -4 11
-2 11 3 0 6 -7 11 -15 11 -9 0 -12 6 -8 17 5 12 3 14 -8 8 -12 -7 -12 -6 -1 7
10 13 10 18 1 24 -8 5 -9 3 -4 -6 5 -8 4 -11 -2 -7 -6 4 -8 17 -6 30 3 15 -3
29 -19 42 l-23 20 15 -20 c13 -18 12 -18 -6 1 -14 15 -26 19 -35 13 -18 -11
-32 -11 -25 0 9 13 -19 7 -38 -8 -14 -12 -16 -12 -11 1 8 20 -45 19 -69 -1
-14 -12 -16 -12 -11 1 5 11 -3 14 -38 13 -25 0 -52 -7 -61 -14 -14 -12 -16
-12 -10 3 5 14 3 15 -22 5 -39 -15 -94 -22 -74 -9 13 8 13 11 1 22 -10 10 -12
10 -7 1 7 -13 -4 -17 -31 -14 -7 1 -22 -3 -32 -9 -14 -7 -22 -7 -27 2 -4 6 -3
8 4 4 6 -3 13 -2 16 2 6 11 -40 9 -50 -1 -10 -10 -26 -9 -20 1 2 4 -4 8 -14 8
-13 0 -16 -4 -9 -12 7 -8 2 -10 -17 -6 -18 3 -22 7 -13 13 10 6 7 8 -9 6 -12
-1 -21 -6 -18 -12 2 -6 -8 -11 -24 -10 -16 0 -26 5 -23 11 2 7 -1 15 -8 20 -8
4 -10 3 -5 -4z m476 -22 c0 -5 -2 -10 -4 -10 -3 0 -8 5 -11 10 -3 6 -1 10 4
10 6 0 11 -4 11 -10z m80 0 c0 -5 -2 -10 -4 -10 -3 0 -8 5 -11 10 -3 6 -1 10
4 10 6 0 11 -4 11 -10z m-515 -1330 c3 -5 1 -10 -4 -10 -6 0 -11 5 -11 10 0 6
2 10 4 10 3 0 8 -4 11 -10z"/>
<path d="M3034 1493 c7 -13 -4 -17 -31 -14 -7 1 -22 -3 -32 -9 -14 -7 -22 -7
-27 2 -4 6 -3 8 4 4 6 -3 13 -2 16 2 6 11 -40 9 -50 -1 -11 -10 -26 -9 -20 2
9 13 -19 7 -38 -8 -14 -12 -16 -12 -11 1 8 20 -45 19 -69 -1 -14 -12 -16 -12
-11 1 5 11 -3 14 -38 13 -25 0 -52 -7 -61 -14 -14 -12 -16 -12 -10 3 5 14 3
15 -22 5 -45 -17 -73 -18 -67 -2 3 9 0 11 -10 7 -9 -3 -14 -13 -10 -22 4 -15
3 -15 -6 -2 -12 17 -29 20 -53 8 -12 -6 -20 -3 -27 9 -10 17 -10 17 -11 0 0
-9 -5 -16 -11 -15 -6 2 -13 -6 -14 -17 -1 -11 -6 -29 -10 -39 -7 -15 -5 -18 6
-12 8 4 4 -1 -9 -11 -16 -13 -19 -22 -12 -29 8 -8 8 -15 -2 -25 -7 -8 -13 -24
-12 -36 1 -12 -2 -20 -6 -18 -4 3 -11 -2 -14 -11 -3 -8 -2 -13 2 -10 5 3 9 -1
9 -8 0 -8 -6 -12 -13 -9 -14 5 -14 -28 1 -39 6 -5 3 -8 -6 -8 -9 0 -20 -7 -23
-16 -5 -12 -2 -15 10 -10 14 5 15 4 4 -9 -7 -8 -16 -13 -19 -10 -4 2 -8 -2 -8
-10 0 -8 4 -12 9 -9 4 3 8 0 8 -5 0 -6 -5 -11 -11 -11 -5 0 -7 -5 -4 -10 3 -5
1 -10 -6 -10 -9 0 -9 -3 0 -14 12 -15 -1 -32 -16 -23 -5 3 -8 -12 -7 -34 0
-21 -4 -39 -9 -39 -5 0 -4 -7 3 -15 11 -13 10 -14 -5 -9 -13 5 -16 4 -11 -5 5
-7 0 -18 -10 -27 -11 -9 -13 -13 -6 -9 14 7 17 -21 3 -30 -6 -3 -8 -14 -6 -25
2 -12 0 -18 -5 -15 -5 3 -11 1 -15 -5 -3 -5 -1 -10 4 -10 6 0 11 -5 11 -11 0
-6 -6 -9 -13 -6 -8 3 -14 -1 -14 -9 0 -7 5 -10 11 -7 6 4 5 0 -1 -9 -7 -8 -10
-18 -6 -21 3 -4 0 -7 -8 -7 -12 0 -12 -2 1 -10 12 -8 12 -10 -3 -16 -14 -5
-15 -9 -6 -20 7 -8 9 -17 5 -21 -3 -3 -6 -1 -6 6 0 7 -4 10 -10 6 -5 -3 -6
-13 -3 -22 5 -11 3 -14 -6 -8 -10 6 -11 3 -3 -12 8 -15 7 -21 -7 -30 -11 -7
-17 -21 -15 -42 1 -17 -2 -31 -6 -31 -4 0 -11 -7 -14 -16 -3 -8 -2 -12 4 -9
17 11 11 -7 -7 -20 -17 -12 -17 -14 2 -35 13 -14 14 -19 4 -15 -11 4 -15 -3
-14 -30 0 -26 4 -34 14 -30 10 4 9 -1 -4 -15 -10 -11 -13 -20 -7 -20 7 0 12
-5 12 -11 0 -5 -3 -8 -8 -6 -4 3 -7 -10 -8 -29 -1 -24 4 -34 15 -35 12 0 11
-3 -4 -9 -13 -6 -15 -9 -5 -9 13 -1 13 -2 0 -11 -10 -6 -11 -10 -2 -10 6 0 12
-5 12 -11 0 -5 -4 -8 -9 -5 -9 6 -5 -49 5 -66 4 -6 2 -8 -3 -5 -7 4 -10 -3 -9
-17 0 -13 4 -22 9 -19 4 2 7 -1 7 -8 0 -7 3 -9 7 -6 3 4 13 1 21 -6 13 -10 15
-9 8 8 -5 15 -4 17 5 8 6 -6 18 -9 27 -6 11 5 13 3 7 -8 -7 -11 -6 -12 6 -2
12 10 18 10 29 0 8 -8 11 -8 7 -1 -4 7 0 15 9 18 8 3 12 2 9 -4 -4 -6 7 -10
24 -10 18 0 31 5 32 13 0 6 4 3 9 -8 5 -11 9 -14 9 -6 1 11 4 11 18 0 15 -12
16 -12 10 5 -6 14 -5 16 5 8 7 -5 32 -9 56 -7 23 2 42 -1 42 -6 0 -6 5 -7 10
-4 6 4 7 12 3 18 -5 9 -3 9 8 1 8 -6 31 -10 53 -10 35 1 39 4 42 29 1 15 -1
25 -5 23 -4 -3 -7 8 -6 24 0 15 3 26 6 24 4 -2 9 3 12 11 4 9 1 12 -7 9 -7 -3
-13 2 -13 10 0 8 4 13 9 10 4 -3 8 0 8 5 0 6 -6 11 -12 11 -9 0 -9 3 -3 8 13
9 17 55 5 47 -6 -3 -7 1 -4 9 3 9 10 13 15 10 5 -3 6 2 3 10 -3 9 -11 13 -18
10 -6 -3 -2 2 8 10 17 14 17 16 4 16 -9 0 -20 5 -24 12 -4 6 -3 8 3 5 6 -4 19
0 29 8 18 13 18 14 -6 9 -17 -4 -21 -3 -12 3 7 5 10 17 6 26 -4 11 0 19 11 23
13 6 14 9 3 16 -10 8 -10 11 0 15 6 2 9 10 5 16 -4 6 0 8 10 4 11 -4 14 -2 10
8 -3 8 -10 12 -17 9 -6 -3 0 4 14 16 14 12 19 19 13 15 -7 -3 -13 -1 -13 4 0
6 4 11 10 11 5 0 6 7 3 17 -5 12 -3 14 8 8 12 -7 12 -6 1 7 -11 14 -10 19 8
36 21 19 21 21 3 32 -17 11 -17 11 0 6 15 -5 18 -1 16 22 -3 29 8 55 20 48 4
-3 6 8 5 25 -1 16 2 29 7 29 6 0 5 8 -1 20 -9 17 -8 19 7 13 16 -6 17 -5 3 12
-12 15 -12 17 -1 10 11 -6 13 -4 7 10 -6 18 -6 18 12 2 10 -9 24 -17 30 -17 6
0 14 -5 18 -12 4 -7 3 -8 -4 -4 -7 4 -12 3 -12 -3 0 -6 -8 -8 -17 -5 -17 5
-17 5 -1 -6 9 -6 15 -16 12 -24 -3 -7 0 -24 5 -39 7 -18 7 -28 -1 -33 -7 -5
-8 -3 -3 6 5 8 4 11 -3 7 -5 -4 -8 -17 -4 -29 4 -16 2 -19 -8 -13 -9 5 -11 4
-6 -4 4 -6 11 -9 16 -6 4 3 10 -2 13 -10 4 -9 1 -12 -8 -9 -10 4 -13 0 -10
-17 3 -13 -1 -27 -8 -32 -8 -6 -7 -7 5 -3 15 4 16 0 11 -27 -3 -18 -11 -38
-17 -46 -8 -11 -8 -13 0 -8 17 10 35 -16 24 -33 -13 -21 -12 -33 2 -24 7 5 8
3 4 -5 -5 -7 -15 -10 -25 -7 -14 5 -14 4 -1 -6 18 -15 19 -50 2 -70 -9 -12 -9
-15 3 -15 8 0 11 5 8 10 -3 6 -1 7 6 3 12 -8 3 -27 -24 -49 -6 -5 -2 -6 8 -3
12 4 17 2 14 -6 -2 -7 -10 -12 -17 -10 -6 1 -2 -11 10 -28 15 -21 17 -28 6
-24 -12 4 -14 0 -11 -17 3 -13 -1 -27 -8 -32 -9 -6 -8 -8 4 -4 11 4 15 -3 15
-29 0 -19 -5 -34 -10 -34 -6 0 -5 -4 3 -9 8 -5 16 -17 17 -25 1 -9 -2 -14 -7
-10 -5 3 -7 10 -4 15 4 5 1 9 -4 9 -6 0 -11 -4 -11 -9 0 -14 28 -33 40 -26 5
3 10 0 10 -7 1 -8 6 -6 15 6 8 11 15 15 15 9 0 -6 10 -9 23 -9 12 1 28 -3 36
-8 11 -8 13 -8 8 0 -4 7 0 15 9 18 8 3 12 2 9 -4 -4 -6 7 -10 24 -10 18 0 31
5 32 13 0 6 4 3 9 -8 5 -11 9 -14 9 -6 1 11 4 11 18 0 15 -12 16 -12 10 5 -6
14 -5 16 5 8 7 -5 32 -9 56 -7 23 2 42 -1 42 -6 0 -6 5 -7 10 -4 6 4 8 10 6
14 -3 4 1 8 9 8 8 0 12 -4 9 -9 -3 -4 6 -8 20 -8 25 0 30 9 29 47 -1 7 3 10 8
7 5 -3 9 1 9 10 0 8 6 17 13 20 6 3 1 3 -13 -1 -22 -5 -23 -4 -12 10 8 9 9 18
3 21 -10 7 -9 18 8 74 9 29 8 32 -4 22 -18 -15 -20 1 -3 18 9 9 9 12 -1 12 -7
0 -9 5 -6 10 4 6 12 7 18 3 7 -3 4 3 -7 15 -15 18 -16 24 -6 37 7 8 10 22 6
30 -3 8 0 15 7 15 8 0 8 3 -2 9 -9 6 -10 11 -2 15 6 4 11 13 11 19 0 7 -4 6
-11 -3 -7 -11 -9 -7 -5 17 2 17 8 38 12 45 6 10 4 10 -9 -1 -19 -15 -23 -1 -5
17 9 9 9 12 -1 12 -7 0 -9 5 -6 10 4 6 12 7 18 3 7 -3 4 3 -7 15 -15 18 -16
24 -6 37 7 8 10 22 6 30 -3 8 0 15 7 15 8 0 8 3 -2 9 -9 6 -10 11 -2 15 6 4
11 13 11 19 0 7 -4 6 -11 -3 -7 -11 -9 -7 -5 17 2 17 8 38 12 45 6 10 4 10 -9
-1 -19 -15 -23 -1 -5 17 9 9 9 12 -1 12 -7 0 -9 5 -6 10 4 6 12 7 18 3 7 -3 4
2 -5 13 -21 24 -21 28 -3 64 11 22 12 30 3 30 -9 0 -9 3 0 12 7 7 12 17 12 22
0 6 -5 4 -11 -4 -7 -11 -9 -7 -5 17 2 17 8 38 12 45 6 10 4 10 -9 -1 -19 -15
-23 -1 -5 17 9 9 9 12 -1 12 -7 0 -9 5 -6 10 4 6 12 7 18 3 7 -3 4 3 -7 15
-15 18 -16 24 -6 37 7 8 10 22 6 30 -3 8 0 15 7 15 8 0 8 3 -2 9 -9 6 -10 11
-2 15 6 4 11 13 11 19 0 7 -4 6 -11 -3 -7 -11 -9 -7 -5 17 2 17 8 38 12 45 6
10 4 10 -9 -1 -19 -15 -23 -1 -5 17 9 9 9 12 -1 12 -7 0 -9 5 -6 10 4 6 11 8
16 5 5 -3 6 1 3 9 -3 9 -9 14 -14 11 -10 -6 -5 38 8 61 10 21 6 42 -14 61 -10
10 -13 10 -17 0 -4 -8 -6 -6 -6 4 -1 15 -12 16 -64 10 -5 -1 -5 -7 -1 -13 5
-8 1 -8 -10 1 -20 16 -58 23 -50 9 4 -5 13 -7 22 -3 9 3 13 3 9 -2 -5 -4 -22
-8 -39 -9 -20 -1 -26 1 -17 7 12 7 12 10 0 21 -10 10 -12 10 -7 1z m-284 -23
c0 -5 -2 -10 -4 -10 -3 0 -8 5 -11 10 -3 6 -1 10 4 10 6 0 11 -4 11 -10z m80
0 c0 -5 -2 -10 -4 -10 -3 0 -8 5 -11 10 -3 6 -1 10 4 10 6 0 11 -4 11 -10z
m340 4 c0 -8 -19 -13 -24 -6 -3 5 1 9 9 9 8 0 15 -2 15 -3z m53 -39 c4 -8 3
-16 -1 -19 -4 -3 -9 4 -9 15 -2 23 3 25 10 4z m-446 -529 c-3 -8 -1 -17 6 -20
7 -2 5 -5 -4 -5 -9 -1 -20 6 -23 15 -3 8 -2 12 4 9 6 -3 10 -1 10 4 0 6 3 11
6 11 3 0 4 -6 1 -14z m4 -339 c-10 -9 -11 -8 -5 6 3 10 9 15 12 12 3 -3 0 -11
-7 -18z"/>
<path d="M670 1479 c0 -5 5 -7 10 -4 6 3 10 8 10 11 0 2 -4 4 -10 4 -5 0 -10
-5 -10 -11z"/>
<path d="M2590 1479 c0 -5 5 -7 10 -4 6 3 10 8 10 11 0 2 -4 4 -10 4 -5 0 -10
-5 -10 -11z"/>
<path d="M3225 1381 c-3 -5 -2 -12 3 -15 5 -3 9 1 9 9 0 17 -3 19 -12 6z"/>
<path d="M3220 1120 c0 -6 7 -10 15 -10 8 0 15 2 15 4 0 2 -7 6 -15 10 -8 3
-15 1 -15 -4z"/>
<path d="M1510 990 c0 -5 5 -10 11 -10 5 0 7 5 4 10 -3 6 -8 10 -11 10 -2 0
-4 -4 -4 -10z"/>
<path d="M3233 908 c-11 -19 -13 -39 -1 -32 5 3 7 9 4 12 -3 3 -1 11 5 19 6 7
9 13 6 13 -3 0 -9 -6 -14 -12z"/>
<path d="M1300 739 c0 -5 5 -7 10 -4 6 3 10 8 10 11 0 2 -4 4 -10 4 -5 0 -10
-5 -10 -11z"/>
<path d="M3220 640 c0 -6 7 -10 15 -10 8 0 15 2 15 4 0 2 -7 6 -15 10 -8 3
-15 1 -15 -4z"/>
<path d="M2756 528 c3 -5 10 -6 15 -3 13 9 11 12 -6 12 -8 0 -12 -4 -9 -9z"/>
<path d="M3220 400 c0 -6 7 -10 15 -10 8 0 15 2 15 4 0 2 -7 6 -15 10 -8 3
-15 1 -15 -4z"/>
<path d="M1916 382 c-3 -5 1 -9 9 -9 8 0 12 4 9 9 -3 4 -7 8 -9 8 -2 0 -6 -4
-9 -8z"/>
<path d="M365 281 c-3 -5 -2 -12 3 -15 5 -3 9 1 9 9 0 17 -3 19 -12 6z"/>
<path d="M3233 268 c-11 -19 -13 -39 -1 -32 5 3 7 9 4 12 -3 3 -1 11 5 19 6 7
9 13 6 13 -3 0 -9 -6 -14 -12z"/>
<path d="M2609 193 c-13 -16 -12 -17 4 -4 9 7 17 15 17 17 0 8 -8 3 -21 -13z"/>
<path d="M3225 141 c-3 -5 -2 -12 3 -15 5 -3 9 1 9 9 0 17 -3 19 -12 6z"/>
</g>
</svg>
